<mxfile host="Electron" agent="Mozilla/5.0 (Windows NT 10.0; Win64; x64) AppleWebKit/537.36 (KHTML, like Gecko) draw.io/25.0.2 Chrome/128.0.6613.186 Electron/32.2.5 Safari/537.36" version="25.0.2" pages="2">
  <diagram name="Page-1" id="KDmNs4Xcn_jtlgTI6kvk">
    <mxGraphModel dx="989" dy="588" grid="1" gridSize="10" guides="1" tooltips="1" connect="1" arrows="1" fold="1" page="1" pageScale="1" pageWidth="827" pageHeight="1169" math="0" shadow="0">
      <root>
        <mxCell id="0" />
        <mxCell id="1" parent="0" />
        <mxCell id="ECvmZYWSfUhHFXB_95qh-4" value="" style="endArrow=classic;html=1;rounded=0;" edge="1" parent="1">
          <mxGeometry width="50" height="50" relative="1" as="geometry">
            <mxPoint x="40" y="280" as="sourcePoint" />
            <mxPoint x="720" y="280" as="targetPoint" />
          </mxGeometry>
        </mxCell>
        <mxCell id="ECvmZYWSfUhHFXB_95qh-5" value="" style="endArrow=none;html=1;rounded=0;strokeColor=#FF0000;" edge="1" parent="1">
          <mxGeometry width="50" height="50" relative="1" as="geometry">
            <mxPoint x="40" y="280" as="sourcePoint" />
            <mxPoint x="200" y="280" as="targetPoint" />
            <Array as="points">
              <mxPoint x="120" y="160" />
            </Array>
          </mxGeometry>
        </mxCell>
        <mxCell id="ECvmZYWSfUhHFXB_95qh-6" value="" style="endArrow=none;html=1;rounded=0;strokeColor=#FF0000;" edge="1" parent="1">
          <mxGeometry width="50" height="50" relative="1" as="geometry">
            <mxPoint x="200" y="280" as="sourcePoint" />
            <mxPoint x="360" y="280" as="targetPoint" />
            <Array as="points">
              <mxPoint x="280" y="160" />
            </Array>
          </mxGeometry>
        </mxCell>
        <mxCell id="ECvmZYWSfUhHFXB_95qh-7" value="" style="endArrow=none;html=1;rounded=0;strokeColor=#FF0000;" edge="1" parent="1">
          <mxGeometry width="50" height="50" relative="1" as="geometry">
            <mxPoint x="360" y="280" as="sourcePoint" />
            <mxPoint x="520" y="280" as="targetPoint" />
            <Array as="points">
              <mxPoint x="440" y="160" />
            </Array>
          </mxGeometry>
        </mxCell>
        <mxCell id="ECvmZYWSfUhHFXB_95qh-8" value="" style="endArrow=none;html=1;rounded=0;strokeColor=#FF0000;" edge="1" parent="1">
          <mxGeometry width="50" height="50" relative="1" as="geometry">
            <mxPoint x="520" y="280" as="sourcePoint" />
            <mxPoint x="680" y="280" as="targetPoint" />
            <Array as="points">
              <mxPoint x="600" y="160" />
            </Array>
          </mxGeometry>
        </mxCell>
        <mxCell id="ECvmZYWSfUhHFXB_95qh-9" value="Trigger ADC" style="rounded=0;whiteSpace=wrap;html=1;" vertex="1" parent="1">
          <mxGeometry x="240" y="80" width="80" height="40" as="geometry" />
        </mxCell>
        <mxCell id="ECvmZYWSfUhHFXB_95qh-33" style="edgeStyle=orthogonalEdgeStyle;rounded=0;orthogonalLoop=1;jettySize=auto;html=1;" edge="1" parent="1" target="ECvmZYWSfUhHFXB_95qh-10">
          <mxGeometry relative="1" as="geometry">
            <mxPoint x="320" y="520" as="sourcePoint" />
          </mxGeometry>
        </mxCell>
        <mxCell id="ECvmZYWSfUhHFXB_95qh-38" style="edgeStyle=orthogonalEdgeStyle;rounded=0;orthogonalLoop=1;jettySize=auto;html=1;entryX=0;entryY=0.5;entryDx=0;entryDy=0;" edge="1" parent="1" source="ECvmZYWSfUhHFXB_95qh-10" target="ECvmZYWSfUhHFXB_95qh-11">
          <mxGeometry relative="1" as="geometry" />
        </mxCell>
        <mxCell id="ECvmZYWSfUhHFXB_95qh-10" value="ADC Interrupt" style="rounded=0;whiteSpace=wrap;html=1;" vertex="1" parent="1">
          <mxGeometry x="280" y="440" width="80" height="40" as="geometry" />
        </mxCell>
        <mxCell id="ECvmZYWSfUhHFXB_95qh-39" style="edgeStyle=orthogonalEdgeStyle;rounded=0;orthogonalLoop=1;jettySize=auto;html=1;entryX=0;entryY=0.5;entryDx=0;entryDy=0;" edge="1" parent="1" source="ECvmZYWSfUhHFXB_95qh-11" target="ECvmZYWSfUhHFXB_95qh-35">
          <mxGeometry relative="1" as="geometry" />
        </mxCell>
        <mxCell id="ECvmZYWSfUhHFXB_95qh-11" value="Controller&lt;div&gt;algorithm&lt;/div&gt;" style="rounded=0;whiteSpace=wrap;html=1;" vertex="1" parent="1">
          <mxGeometry x="400" y="440" width="80" height="40" as="geometry" />
        </mxCell>
        <mxCell id="ECvmZYWSfUhHFXB_95qh-12" value="" style="curved=1;endArrow=classic;html=1;rounded=0;entryX=0;entryY=0.5;entryDx=0;entryDy=0;" edge="1" parent="1" target="ECvmZYWSfUhHFXB_95qh-9">
          <mxGeometry width="50" height="50" relative="1" as="geometry">
            <mxPoint x="200" y="280" as="sourcePoint" />
            <mxPoint x="250" y="230" as="targetPoint" />
            <Array as="points">
              <mxPoint x="230" y="220" />
              <mxPoint x="180" y="210" />
              <mxPoint x="190" y="110" />
            </Array>
          </mxGeometry>
        </mxCell>
        <mxCell id="ECvmZYWSfUhHFXB_95qh-13" value="Initialize" style="shape=parallelogram;perimeter=parallelogramPerimeter;whiteSpace=wrap;html=1;fixedSize=1;" vertex="1" parent="1">
          <mxGeometry x="70" y="80" width="80" height="40" as="geometry" />
        </mxCell>
        <mxCell id="ECvmZYWSfUhHFXB_95qh-14" value="" style="curved=1;endArrow=classic;html=1;rounded=0;entryX=0;entryY=0.5;entryDx=0;entryDy=0;" edge="1" parent="1">
          <mxGeometry width="50" height="50" relative="1" as="geometry">
            <mxPoint x="40" y="280" as="sourcePoint" />
            <mxPoint x="80" y="100" as="targetPoint" />
            <Array as="points">
              <mxPoint x="70" y="220" />
              <mxPoint x="20" y="210" />
              <mxPoint x="30" y="110" />
            </Array>
          </mxGeometry>
        </mxCell>
        <mxCell id="ECvmZYWSfUhHFXB_95qh-19" value="Trigger ADC" style="rounded=0;whiteSpace=wrap;html=1;" vertex="1" parent="1">
          <mxGeometry x="400" y="80" width="80" height="40" as="geometry" />
        </mxCell>
        <mxCell id="ECvmZYWSfUhHFXB_95qh-20" value="" style="curved=1;endArrow=classic;html=1;rounded=0;entryX=0;entryY=0.5;entryDx=0;entryDy=0;" edge="1" parent="1" target="ECvmZYWSfUhHFXB_95qh-19">
          <mxGeometry width="50" height="50" relative="1" as="geometry">
            <mxPoint x="360" y="280" as="sourcePoint" />
            <mxPoint x="410" y="230" as="targetPoint" />
            <Array as="points">
              <mxPoint x="390" y="220" />
              <mxPoint x="340" y="210" />
              <mxPoint x="350" y="110" />
            </Array>
          </mxGeometry>
        </mxCell>
        <mxCell id="ECvmZYWSfUhHFXB_95qh-21" value="Trigger ADC" style="rounded=0;whiteSpace=wrap;html=1;" vertex="1" parent="1">
          <mxGeometry x="560" y="80" width="80" height="40" as="geometry" />
        </mxCell>
        <mxCell id="ECvmZYWSfUhHFXB_95qh-22" value="" style="curved=1;endArrow=classic;html=1;rounded=0;entryX=0;entryY=0.5;entryDx=0;entryDy=0;" edge="1" parent="1" target="ECvmZYWSfUhHFXB_95qh-21">
          <mxGeometry width="50" height="50" relative="1" as="geometry">
            <mxPoint x="520" y="280" as="sourcePoint" />
            <mxPoint x="570" y="230" as="targetPoint" />
            <Array as="points">
              <mxPoint x="550" y="220" />
              <mxPoint x="500" y="210" />
              <mxPoint x="510" y="110" />
            </Array>
          </mxGeometry>
        </mxCell>
        <mxCell id="ECvmZYWSfUhHFXB_95qh-23" value="t" style="text;html=1;align=center;verticalAlign=middle;whiteSpace=wrap;rounded=0;" vertex="1" parent="1">
          <mxGeometry x="680" y="260" width="80" height="20" as="geometry" />
        </mxCell>
        <mxCell id="ECvmZYWSfUhHFXB_95qh-24" value="PWM Timer" style="text;html=1;align=center;verticalAlign=middle;whiteSpace=wrap;rounded=0;fontColor=#FF0000;rotation=-60;" vertex="1" parent="1">
          <mxGeometry x="50" y="180" width="80" height="20" as="geometry" />
        </mxCell>
        <mxCell id="ECvmZYWSfUhHFXB_95qh-25" value="" style="endArrow=classic;startArrow=classic;html=1;rounded=0;fontColor=#FF0000;strokeColor=#FF0000;" edge="1" parent="1">
          <mxGeometry width="50" height="50" relative="1" as="geometry">
            <mxPoint x="40" y="320" as="sourcePoint" />
            <mxPoint x="200" y="320" as="targetPoint" />
          </mxGeometry>
        </mxCell>
        <mxCell id="ECvmZYWSfUhHFXB_95qh-26" value="F&lt;sub&gt;PWM&lt;/sub&gt;=20kHz&lt;div&gt;(t&lt;sub&gt;PWM&lt;/sub&gt;=50us)&lt;/div&gt;" style="text;html=1;align=center;verticalAlign=middle;whiteSpace=wrap;rounded=0;fontColor=#FF0000;rotation=0;" vertex="1" parent="1">
          <mxGeometry x="70" y="300" width="100" height="40" as="geometry" />
        </mxCell>
        <mxCell id="ECvmZYWSfUhHFXB_95qh-28" value="" style="endArrow=classic;html=1;rounded=0;" edge="1" parent="1">
          <mxGeometry width="50" height="50" relative="1" as="geometry">
            <mxPoint x="160" y="520" as="sourcePoint" />
            <mxPoint x="720" y="520" as="targetPoint" />
          </mxGeometry>
        </mxCell>
        <mxCell id="ECvmZYWSfUhHFXB_95qh-32" style="edgeStyle=orthogonalEdgeStyle;rounded=0;orthogonalLoop=1;jettySize=auto;html=1;" edge="1" parent="1" target="ECvmZYWSfUhHFXB_95qh-31">
          <mxGeometry relative="1" as="geometry">
            <mxPoint x="200" y="520" as="sourcePoint" />
          </mxGeometry>
        </mxCell>
        <mxCell id="ECvmZYWSfUhHFXB_95qh-31" value="Trigger ADC" style="rounded=0;whiteSpace=wrap;html=1;" vertex="1" parent="1">
          <mxGeometry x="160" y="440" width="80" height="40" as="geometry" />
        </mxCell>
        <mxCell id="ECvmZYWSfUhHFXB_95qh-35" value="&lt;div&gt;Update PWM duty for the next cycle&lt;/div&gt;" style="rounded=0;whiteSpace=wrap;html=1;" vertex="1" parent="1">
          <mxGeometry x="520" y="440" width="120" height="40" as="geometry" />
        </mxCell>
      </root>
    </mxGraphModel>
  </diagram>
  <diagram id="8C0HB0Dqu03D6TSTsO0v" name="Page-2">
    <mxGraphModel dx="1247" dy="741" grid="1" gridSize="10" guides="1" tooltips="1" connect="1" arrows="1" fold="1" page="1" pageScale="1" pageWidth="1654" pageHeight="1169" math="0" shadow="0">
      <root>
        <mxCell id="0" />
        <mxCell id="1" parent="0" />
        <mxCell id="uIxNHoc1xSNFPP-YKhnR-1" style="edgeStyle=orthogonalEdgeStyle;rounded=0;orthogonalLoop=1;jettySize=auto;html=1;entryX=0.5;entryY=0;entryDx=0;entryDy=0;" edge="1" parent="1" source="uIxNHoc1xSNFPP-YKhnR-2" target="uIxNHoc1xSNFPP-YKhnR-6">
          <mxGeometry relative="1" as="geometry" />
        </mxCell>
        <mxCell id="uIxNHoc1xSNFPP-YKhnR-2" value="Start" style="ellipse;whiteSpace=wrap;html=1;" vertex="1" parent="1">
          <mxGeometry x="40" y="40" width="80" height="40" as="geometry" />
        </mxCell>
        <mxCell id="uIxNHoc1xSNFPP-YKhnR-3" style="edgeStyle=orthogonalEdgeStyle;rounded=0;orthogonalLoop=1;jettySize=auto;html=1;entryX=0.5;entryY=0;entryDx=0;entryDy=0;" edge="1" parent="1" source="uIxNHoc1xSNFPP-YKhnR-6" target="uIxNHoc1xSNFPP-YKhnR-8">
          <mxGeometry relative="1" as="geometry" />
        </mxCell>
        <mxCell id="uIxNHoc1xSNFPP-YKhnR-4" style="rounded=0;orthogonalLoop=1;jettySize=auto;html=1;entryX=0;entryY=0.5;entryDx=0;entryDy=0;dashed=1;endArrow=none;endFill=0;exitX=1;exitY=0.5;exitDx=0;exitDy=0;" edge="1" parent="1" source="uIxNHoc1xSNFPP-YKhnR-20" target="uIxNHoc1xSNFPP-YKhnR-27">
          <mxGeometry relative="1" as="geometry" />
        </mxCell>
        <mxCell id="uIxNHoc1xSNFPP-YKhnR-5" style="edgeStyle=none;shape=connector;rounded=0;orthogonalLoop=1;jettySize=auto;html=1;entryX=0;entryY=0.5;entryDx=0;entryDy=0;dashed=1;strokeColor=default;align=center;verticalAlign=middle;fontFamily=Helvetica;fontSize=11;fontColor=default;labelBackgroundColor=default;endArrow=none;endFill=0;exitX=1;exitY=0.25;exitDx=0;exitDy=0;" edge="1" parent="1" source="uIxNHoc1xSNFPP-YKhnR-20" target="uIxNHoc1xSNFPP-YKhnR-28">
          <mxGeometry relative="1" as="geometry" />
        </mxCell>
        <mxCell id="uIxNHoc1xSNFPP-YKhnR-6" value="System Init" style="shape=parallelogram;perimeter=parallelogramPerimeter;whiteSpace=wrap;html=1;fixedSize=1;" vertex="1" parent="1">
          <mxGeometry x="20" y="120" width="120" height="40" as="geometry" />
        </mxCell>
        <mxCell id="uIxNHoc1xSNFPP-YKhnR-7" style="edgeStyle=orthogonalEdgeStyle;rounded=0;orthogonalLoop=1;jettySize=auto;html=1;entryX=0.5;entryY=0;entryDx=0;entryDy=0;" edge="1" parent="1" source="uIxNHoc1xSNFPP-YKhnR-8" target="uIxNHoc1xSNFPP-YKhnR-20">
          <mxGeometry relative="1" as="geometry" />
        </mxCell>
        <mxCell id="uIxNHoc1xSNFPP-YKhnR-8" value="Motor Init&lt;div&gt;Motor_Init()&lt;/div&gt;" style="shape=parallelogram;perimeter=parallelogramPerimeter;whiteSpace=wrap;html=1;fixedSize=1;" vertex="1" parent="1">
          <mxGeometry x="20" y="200" width="120" height="40" as="geometry" />
        </mxCell>
        <mxCell id="uIxNHoc1xSNFPP-YKhnR-9" value="Main Loop" style="text;html=1;align=center;verticalAlign=middle;whiteSpace=wrap;rounded=0;fontStyle=1" vertex="1" parent="1">
          <mxGeometry x="40" y="10" width="80" height="30" as="geometry" />
        </mxCell>
        <mxCell id="uIxNHoc1xSNFPP-YKhnR-10" value="PWM" style="text;html=1;align=center;verticalAlign=middle;whiteSpace=wrap;rounded=0;fontStyle=1" vertex="1" parent="1">
          <mxGeometry x="360" y="10" width="80" height="30" as="geometry" />
        </mxCell>
        <mxCell id="uIxNHoc1xSNFPP-YKhnR-11" value="ADC" style="text;html=1;align=center;verticalAlign=middle;whiteSpace=wrap;rounded=0;fontStyle=1" vertex="1" parent="1">
          <mxGeometry x="670" y="10" width="80" height="30" as="geometry" />
        </mxCell>
        <mxCell id="uIxNHoc1xSNFPP-YKhnR-12" value="" style="endArrow=classic;html=1;rounded=0;entryX=0.5;entryY=0;entryDx=0;entryDy=0;" edge="1" parent="1">
          <mxGeometry width="50" height="50" relative="1" as="geometry">
            <mxPoint x="710" y="80" as="sourcePoint" />
            <mxPoint x="710" y="120" as="targetPoint" />
          </mxGeometry>
        </mxCell>
        <mxCell id="uIxNHoc1xSNFPP-YKhnR-13" value="ADC Sampling" style="rounded=0;whiteSpace=wrap;html=1;" vertex="1" parent="1">
          <mxGeometry x="670" y="40" width="80" height="40" as="geometry" />
        </mxCell>
        <mxCell id="uIxNHoc1xSNFPP-YKhnR-14" value="Interrupt" style="text;html=1;align=center;verticalAlign=middle;whiteSpace=wrap;rounded=0;" vertex="1" parent="1">
          <mxGeometry x="710" y="80" width="60" height="30" as="geometry" />
        </mxCell>
        <mxCell id="uIxNHoc1xSNFPP-YKhnR-15" style="edgeStyle=orthogonalEdgeStyle;rounded=0;orthogonalLoop=1;jettySize=auto;html=1;entryX=0;entryY=0.5;entryDx=0;entryDy=0;exitX=1;exitY=0.5;exitDx=0;exitDy=0;" edge="1" parent="1" source="uIxNHoc1xSNFPP-YKhnR-16" target="uIxNHoc1xSNFPP-YKhnR-13">
          <mxGeometry relative="1" as="geometry">
            <mxPoint x="550" y="60" as="sourcePoint" />
          </mxGeometry>
        </mxCell>
        <mxCell id="uIxNHoc1xSNFPP-YKhnR-16" value="PWM&lt;div&gt;Timer (50us)&lt;/div&gt;" style="rounded=0;whiteSpace=wrap;html=1;" vertex="1" parent="1">
          <mxGeometry x="360" y="40" width="80" height="40" as="geometry" />
        </mxCell>
        <mxCell id="uIxNHoc1xSNFPP-YKhnR-17" value="Period complete&lt;div&gt;(Trigger)&lt;/div&gt;" style="text;html=1;align=center;verticalAlign=middle;whiteSpace=wrap;rounded=0;" vertex="1" parent="1">
          <mxGeometry x="500" y="40" width="90" height="40" as="geometry" />
        </mxCell>
        <mxCell id="uIxNHoc1xSNFPP-YKhnR-18" style="edgeStyle=orthogonalEdgeStyle;rounded=0;orthogonalLoop=1;jettySize=auto;html=1;entryX=0.5;entryY=0;entryDx=0;entryDy=0;" edge="1" parent="1" source="uIxNHoc1xSNFPP-YKhnR-20" target="uIxNHoc1xSNFPP-YKhnR-22">
          <mxGeometry relative="1" as="geometry" />
        </mxCell>
        <mxCell id="uIxNHoc1xSNFPP-YKhnR-19" style="edgeStyle=none;shape=connector;rounded=0;orthogonalLoop=1;jettySize=auto;html=1;entryX=0;entryY=0.5;entryDx=0;entryDy=0;dashed=1;strokeColor=default;align=center;verticalAlign=middle;fontFamily=Helvetica;fontSize=11;fontColor=default;labelBackgroundColor=default;endArrow=none;endFill=0;exitX=1;exitY=0.75;exitDx=0;exitDy=0;" edge="1" parent="1" source="uIxNHoc1xSNFPP-YKhnR-20" target="uIxNHoc1xSNFPP-YKhnR-29">
          <mxGeometry relative="1" as="geometry" />
        </mxCell>
        <mxCell id="uIxNHoc1xSNFPP-YKhnR-20" value="Motor Control Init&lt;div&gt;MC_Init()&lt;/div&gt;" style="shape=parallelogram;perimeter=parallelogramPerimeter;whiteSpace=wrap;html=1;fixedSize=1;" vertex="1" parent="1">
          <mxGeometry x="5" y="280" width="150" height="40" as="geometry" />
        </mxCell>
        <mxCell id="uIxNHoc1xSNFPP-YKhnR-21" style="edgeStyle=orthogonalEdgeStyle;rounded=0;orthogonalLoop=1;jettySize=auto;html=1;entryX=0.5;entryY=0;entryDx=0;entryDy=0;" edge="1" parent="1" source="uIxNHoc1xSNFPP-YKhnR-22" target="uIxNHoc1xSNFPP-YKhnR-24">
          <mxGeometry relative="1" as="geometry" />
        </mxCell>
        <mxCell id="uIxNHoc1xSNFPP-YKhnR-22" value="Chart Plotting Init&lt;div&gt;DV_Init()&lt;/div&gt;" style="shape=parallelogram;perimeter=parallelogramPerimeter;whiteSpace=wrap;html=1;fixedSize=1;" vertex="1" parent="1">
          <mxGeometry y="360" width="160" height="40" as="geometry" />
        </mxCell>
        <mxCell id="uIxNHoc1xSNFPP-YKhnR-23" style="edgeStyle=orthogonalEdgeStyle;rounded=0;orthogonalLoop=1;jettySize=auto;html=1;" edge="1" parent="1" source="uIxNHoc1xSNFPP-YKhnR-24">
          <mxGeometry relative="1" as="geometry">
            <mxPoint x="80" y="420" as="targetPoint" />
            <Array as="points">
              <mxPoint x="80" y="520" />
              <mxPoint x="210" y="520" />
              <mxPoint x="210" y="420" />
            </Array>
          </mxGeometry>
        </mxCell>
        <mxCell id="uIxNHoc1xSNFPP-YKhnR-24" value="Chart Plotting Task&lt;div&gt;DV_Tasks()&lt;/div&gt;" style="shape=parallelogram;perimeter=parallelogramPerimeter;whiteSpace=wrap;html=1;fixedSize=1;" vertex="1" parent="1">
          <mxGeometry y="440" width="160" height="40" as="geometry" />
        </mxCell>
        <mxCell id="uIxNHoc1xSNFPP-YKhnR-25" style="edgeStyle=orthogonalEdgeStyle;rounded=0;orthogonalLoop=1;jettySize=auto;html=1;endArrow=none;endFill=0;dashed=1;" edge="1" parent="1" source="uIxNHoc1xSNFPP-YKhnR-26">
          <mxGeometry relative="1" as="geometry">
            <mxPoint x="130" y="220" as="targetPoint" />
          </mxGeometry>
        </mxCell>
        <mxCell id="uIxNHoc1xSNFPP-YKhnR-26" value="Motor_myInit()" style="shape=hexagon;perimeter=hexagonPerimeter2;whiteSpace=wrap;html=1;fixedSize=1;" vertex="1" parent="1">
          <mxGeometry x="200" y="210" width="120" height="20" as="geometry" />
        </mxCell>
        <mxCell id="uIxNHoc1xSNFPP-YKhnR-27" value="PWM init" style="shape=hexagon;perimeter=hexagonPerimeter2;whiteSpace=wrap;html=1;fixedSize=1;" vertex="1" parent="1">
          <mxGeometry x="200" y="290" width="120" height="20" as="geometry" />
        </mxCell>
        <mxCell id="uIxNHoc1xSNFPP-YKhnR-28" value="ADC init" style="shape=hexagon;perimeter=hexagonPerimeter2;whiteSpace=wrap;html=1;fixedSize=1;" vertex="1" parent="1">
          <mxGeometry x="200" y="270" width="120" height="20" as="geometry" />
        </mxCell>
        <mxCell id="uIxNHoc1xSNFPP-YKhnR-29" value="MC_myInit()" style="shape=hexagon;perimeter=hexagonPerimeter2;whiteSpace=wrap;html=1;fixedSize=1;fontColor=#FF0000;" vertex="1" parent="1">
          <mxGeometry x="200" y="310" width="120" height="20" as="geometry" />
        </mxCell>
        <mxCell id="uIxNHoc1xSNFPP-YKhnR-30" style="edgeStyle=none;shape=connector;rounded=0;orthogonalLoop=1;jettySize=auto;html=1;entryX=0.5;entryY=0;entryDx=0;entryDy=0;strokeColor=default;align=center;verticalAlign=middle;fontFamily=Helvetica;fontSize=11;fontColor=default;labelBackgroundColor=default;endArrow=classic;endFill=1;" edge="1" parent="1" source="uIxNHoc1xSNFPP-YKhnR-31" target="uIxNHoc1xSNFPP-YKhnR-33">
          <mxGeometry relative="1" as="geometry" />
        </mxCell>
        <mxCell id="uIxNHoc1xSNFPP-YKhnR-31" value="Get inputs" style="shape=parallelogram;perimeter=parallelogramPerimeter;whiteSpace=wrap;html=1;fixedSize=1;" vertex="1" parent="1">
          <mxGeometry x="650" y="120" width="120" height="40" as="geometry" />
        </mxCell>
        <mxCell id="uIxNHoc1xSNFPP-YKhnR-32" style="edgeStyle=none;shape=connector;rounded=0;orthogonalLoop=1;jettySize=auto;html=1;entryX=0.5;entryY=0;entryDx=0;entryDy=0;strokeColor=default;align=center;verticalAlign=middle;fontFamily=Helvetica;fontSize=11;fontColor=default;labelBackgroundColor=default;endArrow=classic;endFill=1;" edge="1" parent="1" source="uIxNHoc1xSNFPP-YKhnR-33" target="uIxNHoc1xSNFPP-YKhnR-38">
          <mxGeometry relative="1" as="geometry" />
        </mxCell>
        <mxCell id="uIxNHoc1xSNFPP-YKhnR-33" value="MC_myProcess()" style="shape=parallelogram;perimeter=parallelogramPerimeter;whiteSpace=wrap;html=1;fixedSize=1;fontColor=#FF0000;" vertex="1" parent="1">
          <mxGeometry x="650" y="200" width="120" height="40" as="geometry" />
        </mxCell>
        <mxCell id="uIxNHoc1xSNFPP-YKhnR-34" style="edgeStyle=none;shape=connector;rounded=0;orthogonalLoop=1;jettySize=auto;html=1;entryX=0.5;entryY=0;entryDx=0;entryDy=0;strokeColor=default;align=center;verticalAlign=middle;fontFamily=Helvetica;fontSize=11;fontColor=default;labelBackgroundColor=default;endArrow=classic;endFill=1;" edge="1" parent="1" source="uIxNHoc1xSNFPP-YKhnR-38" target="uIxNHoc1xSNFPP-YKhnR-39">
          <mxGeometry relative="1" as="geometry" />
        </mxCell>
        <mxCell id="uIxNHoc1xSNFPP-YKhnR-35" style="edgeStyle=none;shape=connector;rounded=0;orthogonalLoop=1;jettySize=auto;html=1;entryX=1;entryY=0.5;entryDx=0;entryDy=0;dashed=1;strokeColor=default;align=center;verticalAlign=middle;fontFamily=Helvetica;fontSize=11;fontColor=default;labelBackgroundColor=default;endArrow=classic;endFill=1;" edge="1" parent="1" source="uIxNHoc1xSNFPP-YKhnR-38" target="uIxNHoc1xSNFPP-YKhnR-48">
          <mxGeometry relative="1" as="geometry" />
        </mxCell>
        <mxCell id="uIxNHoc1xSNFPP-YKhnR-36" style="edgeStyle=none;shape=connector;rounded=0;orthogonalLoop=1;jettySize=auto;html=1;entryX=1;entryY=0.5;entryDx=0;entryDy=0;dashed=1;strokeColor=default;align=center;verticalAlign=middle;fontFamily=Helvetica;fontSize=11;fontColor=default;labelBackgroundColor=default;endArrow=classic;endFill=1;" edge="1" parent="1" source="uIxNHoc1xSNFPP-YKhnR-38" target="uIxNHoc1xSNFPP-YKhnR-49">
          <mxGeometry relative="1" as="geometry" />
        </mxCell>
        <mxCell id="uIxNHoc1xSNFPP-YKhnR-37" style="edgeStyle=none;shape=connector;rounded=0;orthogonalLoop=1;jettySize=auto;html=1;entryX=1;entryY=0.5;entryDx=0;entryDy=0;dashed=1;strokeColor=default;align=center;verticalAlign=middle;fontFamily=Helvetica;fontSize=11;fontColor=default;labelBackgroundColor=default;endArrow=classic;endFill=1;" edge="1" parent="1" source="uIxNHoc1xSNFPP-YKhnR-38" target="uIxNHoc1xSNFPP-YKhnR-50">
          <mxGeometry relative="1" as="geometry" />
        </mxCell>
        <mxCell id="uIxNHoc1xSNFPP-YKhnR-38" value="Update PWM duty" style="shape=parallelogram;perimeter=parallelogramPerimeter;whiteSpace=wrap;html=1;fixedSize=1;" vertex="1" parent="1">
          <mxGeometry x="630" y="280" width="160" height="40" as="geometry" />
        </mxCell>
        <mxCell id="uIxNHoc1xSNFPP-YKhnR-39" value="End" style="ellipse;whiteSpace=wrap;html=1;" vertex="1" parent="1">
          <mxGeometry x="670" y="360" width="80" height="40" as="geometry" />
        </mxCell>
        <mxCell id="uIxNHoc1xSNFPP-YKhnR-40" style="edgeStyle=none;shape=connector;rounded=0;orthogonalLoop=1;jettySize=auto;html=1;entryX=1;entryY=0.5;entryDx=0;entryDy=0;dashed=1;strokeColor=default;align=center;verticalAlign=middle;fontFamily=Helvetica;fontSize=11;fontColor=default;labelBackgroundColor=default;endArrow=classic;endFill=1;exitX=0;exitY=0.5;exitDx=0;exitDy=0;" edge="1" parent="1" source="uIxNHoc1xSNFPP-YKhnR-41" target="uIxNHoc1xSNFPP-YKhnR-31">
          <mxGeometry relative="1" as="geometry" />
        </mxCell>
        <mxCell id="uIxNHoc1xSNFPP-YKhnR-41" value="IU" style="shape=hexagon;perimeter=hexagonPerimeter2;whiteSpace=wrap;html=1;fixedSize=1;" vertex="1" parent="1">
          <mxGeometry x="840" y="120" width="80" height="20" as="geometry" />
        </mxCell>
        <mxCell id="uIxNHoc1xSNFPP-YKhnR-42" style="edgeStyle=none;shape=connector;rounded=0;orthogonalLoop=1;jettySize=auto;html=1;entryX=1;entryY=0.75;entryDx=0;entryDy=0;dashed=1;strokeColor=default;align=center;verticalAlign=middle;fontFamily=Helvetica;fontSize=11;fontColor=default;labelBackgroundColor=default;endArrow=classic;endFill=1;" edge="1" parent="1" source="uIxNHoc1xSNFPP-YKhnR-43" target="uIxNHoc1xSNFPP-YKhnR-31">
          <mxGeometry relative="1" as="geometry" />
        </mxCell>
        <mxCell id="uIxNHoc1xSNFPP-YKhnR-43" value="IV" style="shape=hexagon;perimeter=hexagonPerimeter2;whiteSpace=wrap;html=1;fixedSize=1;" vertex="1" parent="1">
          <mxGeometry x="840" y="140" width="80" height="20" as="geometry" />
        </mxCell>
        <mxCell id="uIxNHoc1xSNFPP-YKhnR-44" style="edgeStyle=none;shape=connector;rounded=0;orthogonalLoop=1;jettySize=auto;html=1;exitX=0;exitY=0.5;exitDx=0;exitDy=0;entryX=1;entryY=0.25;entryDx=0;entryDy=0;dashed=1;strokeColor=default;align=center;verticalAlign=middle;fontFamily=Helvetica;fontSize=11;fontColor=default;labelBackgroundColor=default;endArrow=classic;endFill=1;" edge="1" parent="1" source="uIxNHoc1xSNFPP-YKhnR-45" target="uIxNHoc1xSNFPP-YKhnR-31">
          <mxGeometry relative="1" as="geometry" />
        </mxCell>
        <mxCell id="uIxNHoc1xSNFPP-YKhnR-45" value="VDC" style="shape=hexagon;perimeter=hexagonPerimeter2;whiteSpace=wrap;html=1;fixedSize=1;" vertex="1" parent="1">
          <mxGeometry x="840" y="100" width="80" height="20" as="geometry" />
        </mxCell>
        <mxCell id="uIxNHoc1xSNFPP-YKhnR-46" style="edgeStyle=none;shape=connector;rounded=0;orthogonalLoop=1;jettySize=auto;html=1;entryX=1;entryY=1;entryDx=0;entryDy=0;dashed=1;strokeColor=default;align=center;verticalAlign=middle;fontFamily=Helvetica;fontSize=11;fontColor=default;labelBackgroundColor=default;endArrow=classic;endFill=1;exitX=0;exitY=0.5;exitDx=0;exitDy=0;" edge="1" parent="1" source="uIxNHoc1xSNFPP-YKhnR-47" target="uIxNHoc1xSNFPP-YKhnR-31">
          <mxGeometry relative="1" as="geometry" />
        </mxCell>
        <mxCell id="uIxNHoc1xSNFPP-YKhnR-47" value="Speed" style="shape=hexagon;perimeter=hexagonPerimeter2;whiteSpace=wrap;html=1;fixedSize=1;" vertex="1" parent="1">
          <mxGeometry x="840" y="160" width="80" height="20" as="geometry" />
        </mxCell>
        <mxCell id="uIxNHoc1xSNFPP-YKhnR-48" value="Duty U" style="shape=hexagon;perimeter=hexagonPerimeter2;whiteSpace=wrap;html=1;fixedSize=1;" vertex="1" parent="1">
          <mxGeometry x="510" y="270" width="80" height="20" as="geometry" />
        </mxCell>
        <mxCell id="uIxNHoc1xSNFPP-YKhnR-49" value="Duty V" style="shape=hexagon;perimeter=hexagonPerimeter2;whiteSpace=wrap;html=1;fixedSize=1;" vertex="1" parent="1">
          <mxGeometry x="510" y="290" width="80" height="20" as="geometry" />
        </mxCell>
        <mxCell id="uIxNHoc1xSNFPP-YKhnR-50" value="Duty W" style="shape=hexagon;perimeter=hexagonPerimeter2;whiteSpace=wrap;html=1;fixedSize=1;" vertex="1" parent="1">
          <mxGeometry x="510" y="310" width="80" height="20" as="geometry" />
        </mxCell>
        <mxCell id="Q2CJIh_7A5-_w-OZf3F2-1" value="Loop forever" style="text;html=1;align=center;verticalAlign=middle;whiteSpace=wrap;rounded=0;" vertex="1" parent="1">
          <mxGeometry x="100" y="500" width="80" height="20" as="geometry" />
        </mxCell>
        <mxCell id="Q2CJIh_7A5-_w-OZf3F2-2" value="" style="endArrow=none;html=1;rounded=0;" edge="1" parent="1">
          <mxGeometry width="50" height="50" relative="1" as="geometry">
            <mxPoint x="340" y="560" as="sourcePoint" />
            <mxPoint x="340" as="targetPoint" />
          </mxGeometry>
        </mxCell>
        <mxCell id="Q2CJIh_7A5-_w-OZf3F2-3" value="" style="endArrow=none;html=1;rounded=0;" edge="1" parent="1">
          <mxGeometry width="50" height="50" relative="1" as="geometry">
            <mxPoint x="460" y="560" as="sourcePoint" />
            <mxPoint x="460" as="targetPoint" />
          </mxGeometry>
        </mxCell>
      </root>
    </mxGraphModel>
  </diagram>
</mxfile>
